<svg width="498" height="196" viewBox="0 0 498 196" fill="none" xmlns="http://www.w3.org/2000/svg">
<g clip-path="url(#clip0_923_21684)">
<path d="M9.64506 110.527C7.92476 73.4038 6.25936 37.1232 4.53906 0L120 46.5001L119.781 47.2876L36.2548 32.4164C36.2548 32.4164 36.8038 36.5554 37.0966 38.3685C38.0483 44.2291 39.4026 52.8185 39.9333 55.932C40.464 59.0454 39.9333 59.43 43.9412 60.1626C47.9492 60.8952 68.7392 65.0342 81.129 67.4883C81.5682 67.4883 81.9708 67.7264 83.3983 68.166L9.64506 110.527Z" fill="#242D36"/>
<path d="M111.032 85.418C112.35 122.578 113.65 158.858 114.986 196L0 148.346L0.237914 147.559L83.5992 163.309C83.5992 163.309 83.0868 159.17 82.8123 157.338C81.9338 151.478 80.671 142.888 80.1769 139.738C79.6828 136.588 80.1769 136.259 76.2056 135.471C72.2343 134.684 51.4626 130.343 39.091 127.724C38.6701 127.724 38.2492 127.468 36.84 127.028L111.032 85.418Z" fill="#242D36"/>
</g>
<path d="M191.035 98L169.054 46.5379H184.786L203.313 91.0894H194.049L213.017 46.5379H227.426L205.371 98H191.035ZM231.909 98V46.5379H246.465V98H231.909ZM269.246 98V58.0801H253.44V46.5379H299.535V58.0801H283.802V98H269.246ZM297.668 98L320.385 46.5379H334.721L357.512 98H342.367L324.576 53.6691H330.31L312.519 98H297.668ZM310.093 88.0017L313.842 77.2681H338.985L342.735 88.0017H310.093ZM363.109 98V46.5379H377.665V86.4578H402.22V98H363.109ZM409.45 98V46.5379H421.434L449.811 80.797H444.15V46.5379H458.413V98H446.429L418.052 63.741H423.713V98H409.45ZM470.151 98V46.5379H484.707V98H470.151Z" fill="#242D36"/>
<path d="M172.085 158.91V151.898L195.385 124.244L196.742 128.203H172.594V119.324H206.695V126.336L183.396 153.99L182.038 150.032H207.543V158.91H172.085ZM208.828 158.91L226.302 119.324H237.33L254.861 158.91H243.211L229.526 124.809H233.937L220.251 158.91H208.828ZM218.385 151.219L221.269 142.963H240.61L243.494 151.219H218.385ZM288.913 158.91L272.004 119.324H284.106L298.357 153.594H291.232L305.822 119.324H316.906L299.941 158.91H288.913ZM330.647 134.649H349.026V143.019H330.647V134.649ZM331.439 150.258H352.137V158.91H320.355V119.324H351.402V127.976H331.439V150.258ZM359.481 158.91V119.324H378.2C382.573 119.324 386.419 120.135 389.737 121.756C393.054 123.377 395.637 125.658 397.484 128.598C399.369 131.539 400.312 135.045 400.312 139.117C400.312 143.151 399.369 146.657 397.484 149.636C395.637 152.576 393.054 154.857 389.737 156.478C386.419 158.1 382.573 158.91 378.2 158.91H359.481ZM370.679 149.975H377.748C380.01 149.975 381.97 149.56 383.629 148.731C385.326 147.864 386.645 146.62 387.588 144.998C388.53 143.34 389.001 141.379 389.001 139.117C389.001 136.817 388.53 134.857 387.588 133.236C386.645 131.615 385.326 130.389 383.629 129.56C381.97 128.693 380.01 128.259 377.748 128.259H370.679V149.975ZM407.334 158.91V119.324H416.552L438.381 145.677H434.026V119.324H444.997V158.91H435.779L413.95 132.557H418.305V158.91H407.334ZM473.989 159.702C470.822 159.702 467.901 159.193 465.224 158.175C462.547 157.157 460.21 155.724 458.211 153.877C456.251 151.992 454.724 149.805 453.631 147.317C452.537 144.829 451.991 142.095 451.991 139.117C451.991 136.139 452.537 133.405 453.631 130.917C454.724 128.429 456.251 126.261 458.211 124.414C460.21 122.529 462.547 121.077 465.224 120.059C467.901 119.041 470.822 118.532 473.989 118.532C477.194 118.532 480.116 119.041 482.755 120.059C485.432 121.077 487.75 122.529 489.711 124.414C491.671 126.261 493.198 128.429 494.291 130.917C495.422 133.405 495.988 136.139 495.988 139.117C495.988 142.095 495.422 144.848 494.291 147.374C493.198 149.862 491.671 152.03 489.711 153.877C487.75 155.724 485.432 157.157 482.755 158.175C480.116 159.193 477.194 159.702 473.989 159.702ZM473.989 150.427C475.497 150.427 476.892 150.163 478.174 149.636C479.494 149.108 480.625 148.354 481.567 147.374C482.548 146.356 483.302 145.149 483.829 143.754C484.395 142.359 484.678 140.814 484.678 139.117C484.678 137.383 484.395 135.837 483.829 134.48C483.302 133.085 482.548 131.897 481.567 130.917C480.625 129.899 479.494 129.126 478.174 128.598C476.892 128.071 475.497 127.807 473.989 127.807C472.481 127.807 471.068 128.071 469.748 128.598C468.466 129.126 467.335 129.899 466.355 130.917C465.412 131.897 464.658 133.085 464.093 134.48C463.565 135.837 463.301 137.383 463.301 139.117C463.301 140.814 463.565 142.359 464.093 143.754C464.658 145.149 465.412 146.356 466.355 147.374C467.335 148.354 468.466 149.108 469.748 149.636C471.068 150.163 472.481 150.427 473.989 150.427Z" fill="#242D36"/>
<defs>
<clipPath id="clip0_923_21684">
<rect width="120" height="196" fill="white"/>
</clipPath>
</defs>
</svg>
